<?xml version="1.0" encoding="UTF-8"?>
<svg version="1.1" xmlns="http://www.w3.org/2000/svg" width="512" height="512">
<path d="M0 0 C1.01790619 0.00215515 2.03581238 0.0043103 3.08456421 0.00653076 C17.69363523 0.05620146 32.02575853 0.30709809 46.375 3.3125 C47.34985352 3.51117676 48.32470703 3.70985352 49.32910156 3.91455078 C97.7109774 14.03517194 141.69928269 35.9516877 177.375 70.3125 C178.3640332 71.26068604 178.3640332 71.26068604 179.37304688 72.22802734 C188.86130305 81.37247479 197.6012044 90.66984009 205.375 101.3125 C206.23306152 102.46355017 207.09113451 103.61459177 207.94921875 104.765625 C213.98736829 112.95680614 219.34595521 121.47054105 224.375 130.3125 C224.73948242 130.94430176 225.10396484 131.57610352 225.47949219 132.22705078 C247.08534998 169.97532572 256.85198095 212.74189997 256.6875 255.9375 C256.68534485 256.95540619 256.6831897 257.97331238 256.68096924 259.02206421 C256.63129854 273.63113523 256.38040191 287.96325853 253.375 302.3125 C253.07698486 303.77478027 253.07698486 303.77478027 252.77294922 305.26660156 C242.65232806 353.6484774 220.7358123 397.63678269 186.375 433.3125 C185.74287598 433.97185547 185.11075195 434.63121094 184.45947266 435.31054688 C175.31502521 444.79880305 166.01765991 453.5387044 155.375 461.3125 C154.22394983 462.17056152 153.07290823 463.02863451 151.921875 463.88671875 C143.73224019 469.92427396 135.22961724 475.30707302 126.375 480.3125 C125.66778809 480.7146875 124.96057617 481.116875 124.23193359 481.53125 C101.09654164 494.5566741 75.92537591 503.30551461 49.9375 508.625 C49.21860596 508.77235596 48.49971191 508.91971191 47.7590332 509.0715332 C33.08339502 511.86090125 18.55831162 512.66142619 3.64770508 512.62817383 C0.70811513 512.6250221 -2.2304558 512.64854926 -5.16992188 512.67382812 C-18.54306192 512.71848737 -31.43916711 511.51301542 -44.625 509.3125 C-46.33055054 509.03031616 -46.33055054 509.03031616 -48.07055664 508.74243164 C-91.33802759 500.97044532 -132.38793216 480.98345309 -165.625 452.3125 C-166.37007813 451.67828125 -167.11515625 451.0440625 -167.8828125 450.390625 C-181.38779833 438.57948485 -194.05918743 425.82889772 -204.625 411.3125 C-205.48149066 410.16255169 -206.33826433 409.01281411 -207.1953125 407.86328125 C-213.23534209 399.67315742 -218.61867614 391.16870382 -223.625 382.3125 C-224.0271875 381.60528809 -224.429375 380.89807617 -224.84375 380.16943359 C-237.8691741 357.03404164 -246.61801461 331.86287591 -251.9375 305.875 C-252.08485596 305.15610596 -252.23221191 304.43721191 -252.3840332 303.6965332 C-255.35789088 288.05024391 -255.99800362 272.57681954 -255.9375 256.6875 C-255.93534485 255.66959381 -255.9331897 254.65168762 -255.93096924 253.60293579 C-255.88129854 238.99386477 -255.63040191 224.66174147 -252.625 210.3125 C-252.42632324 209.33764648 -252.22764648 208.36279297 -252.02294922 207.35839844 C-241.90232806 158.9765226 -219.9858123 114.98821731 -185.625 79.3125 C-184.99287598 78.65314453 -184.36075195 77.99378906 -183.70947266 77.31445312 C-174.56502521 67.82619695 -165.26765991 59.0862956 -154.625 51.3125 C-153.47394983 50.45443848 -152.32290823 49.59636549 -151.171875 48.73828125 C-142.98224019 42.70072604 -134.47961724 37.31792698 -125.625 32.3125 C-124.91778809 31.9103125 -124.21057617 31.508125 -123.48193359 31.09375 C-100.34654164 18.0683259 -75.17537591 9.31948539 -49.1875 4 C-48.46860596 3.85264404 -47.74971191 3.70528809 -47.0090332 3.5534668 C-31.36274391 0.57960912 -15.88931954 -0.06050362 0 0 Z " fill="#FFFEFE" transform="translate(255.625,-0.3125)"/>
<path d="M0 0 C4.77655522 2.43510658 7.56489342 5.22344478 10 10 C10.7222124 14.96521026 9.91078913 18.34662474 7.26171875 22.4921875 C5.17533885 24.98550838 3.03378843 25.92925114 0 27 C-1.134375 26.979375 -2.26875 26.95875 -3.4375 26.9375 C-8.78570157 28.53257766 -10.1349955 32.23624213 -12.8125 36.921875 C-14.17560034 40.45517456 -14.04194732 41.43696389 -13 45 C-11.90518097 47.18197468 -10.73157483 49.32514398 -9.5078125 51.4375 C-9.16120575 52.04005615 -8.814599 52.6426123 -8.45748901 53.26342773 C-7.35319953 55.17948585 -6.23924944 57.08972034 -5.125 59 C-4.38347977 60.28348762 -3.64258798 61.56733853 -2.90234375 62.8515625 C0.75000707 69.31472907 0.75000707 69.31472907 4.79736328 75.52734375 C6.4073099 78.83744106 6.00966236 80.49692284 5 84 C3.68066406 86.74145508 3.68066406 86.74145508 2.015625 89.51953125 C1.40976562 90.54240234 0.80390625 91.56527344 0.1796875 92.61914062 C-0.45710937 93.67294922 -1.09390625 94.72675781 -1.75 95.8125 C-3.5991134 98.91417673 -5.44591831 102.01714861 -7.28710938 105.12353516 C-8.37774349 106.95504188 -9.48183327 108.77865078 -10.60351562 110.59130859 C-11.06951172 111.36941895 -11.53550781 112.1475293 -12.015625 112.94921875 C-12.42586914 113.61655029 -12.83611328 114.28388184 -13.25878906 114.97143555 C-14.24137308 117.66059583 -13.79143555 119.28516305 -13 122 C-11.83681982 124.40419194 -11.83681982 124.40419194 -10.4375 126.6875 C-8 130.79603399 -8 130.79603399 -8 133 C-6.948125 132.938125 -5.89625 132.87625 -4.8125 132.8125 C0.37732643 133.06773737 2.52453807 134.68404746 6.3125 138.0625 C8.77834317 142.35489367 8.77405591 146.16215059 8 151 C5.9333095 155.133381 4.25291117 157.2880881 0 159 C-4.05254261 159.63529958 -8.1662824 159.90563196 -11.9140625 158.0546875 C-15.14531948 155.52380149 -17.05585614 152.96540422 -18 149 C-18.27939301 145.15834604 -18.36103769 142.72207538 -16.625 139.25 C-15.68528257 134.36346934 -18.10497203 131.51381272 -20.6171875 127.390625 C-22 125 -22 125 -22 123 C-45.03111226 120.0267144 -45.03111226 120.0267144 -66.203125 126.32373047 C-70.95270902 132.1297477 -73.44810366 138.70541316 -75.77441406 145.76855469 C-77.7971218 151.1017339 -80.91939161 156.91939161 -85 161 C-86.34076668 161.05460834 -87.68441471 161.04104861 -89.02563477 160.99902344 C-89.88065079 160.97700867 -90.73566681 160.9549939 -91.61659241 160.93231201 C-93.01487526 160.89620819 -93.01487526 160.89620819 -94.44140625 160.859375 C-97.43919248 160.82786638 -100.43692709 160.80795355 -103.43481445 160.78857422 C-105.50778534 160.76300796 -107.58061067 160.71605493 -109.65258789 160.64697266 C-120.68481925 159.83111927 -120.68481925 159.83111927 -130.78533936 163.25561523 C-134.01713385 166.65236968 -135.93302984 170.41920492 -137 175 C-136.27955901 177.74415233 -136.27955901 177.74415233 -135 180 C-134.32488052 184.9534929 -134.47591324 188.89135492 -136.625 193.4375 C-140.22027957 197.31661743 -143.22114825 198.74125793 -148.4375 199.5 C-152.92900016 198.86961401 -155.80707693 197.20134767 -159 194 C-161.75594956 189.6088537 -161.78491333 185.02661668 -161 180 C-159.06064716 176.21401238 -156.07662264 173.31890732 -152 172 C-150.906875 172.04125 -149.81375 172.0825 -148.6875 172.125 C-143.24767504 170.46539238 -141.91868667 166.85770168 -139.1875 162.078125 C-137.82236309 158.53954643 -137.70129699 157.51688776 -139 154 C-140.83257855 150.24623257 -142.92173336 146.64777854 -145.01953125 143.03759766 C-147.08724333 139.46616078 -149.08008884 136.00073717 -150.5859375 132.15234375 C-152.0883412 128.67025341 -153.12489384 126.48861648 -156 124 C-161.54856675 122.35272635 -168.49399761 122.10297397 -174 124 C-176.1168154 125.82292358 -177.37624696 127.67440499 -179 130 C-182.71328665 132.47552443 -185.69606973 132.54010105 -190 132 C-194.7031093 129.96911189 -197.71789119 126.56421761 -200 122 C-200.39567146 117.88501683 -200.26788111 115.52545911 -198.375 111.8125 C-195.33162578 108.20850421 -192.75765433 105.24754527 -187.82421875 104.8046875 C-182.03032946 105.13576689 -179.01405403 106.88559462 -175 111 C-174.505 111.99 -174.505 111.99 -174 113 C-168.06 113 -162.12 113 -156 113 C-154.91460937 111.08316406 -153.82921875 109.16632813 -152.7109375 107.19140625 C-151.63931164 105.30431123 -150.5665356 103.41787451 -149.49365234 101.53149414 C-148.75742572 100.23562602 -148.02236749 98.93909328 -147.28857422 97.6418457 C-146.22421533 95.76070389 -145.15545874 93.88211679 -144.0859375 92.00390625 C-143.4470459 90.87799072 -142.8081543 89.7520752 -142.14990234 88.59204102 C-141.80893524 88.02969254 -141.46796814 87.46734406 -141.1166687 86.88795471 C-140.28640285 85.48422204 -139.5149383 84.04537686 -138.77615356 82.59141541 C-135.36075977 76.46642348 -135.36075977 76.46642348 -131.7328186 75.22288513 C-128.96786948 74.95711327 -126.34462897 74.98591671 -123.5703125 75.12109375 C-122.57998016 75.13382828 -121.58964783 75.14656281 -120.56930542 75.15968323 C-117.41866921 75.20990725 -114.2738818 75.32277218 -111.125 75.4375 C-108.98445845 75.48266115 -106.84382621 75.52372289 -104.703125 75.56054688 C-99.46676816 75.65955852 -94.23380177 75.80996982 -89 76 C-88.71261963 75.08790771 -88.42523926 74.17581543 -88.12915039 73.23608398 C-87.22465141 70.64383879 -86.33230385 68.55383974 -84.93359375 66.22265625 C-84.53454834 65.55105469 -84.13550293 64.87945312 -83.72436523 64.1875 C-83.29969971 63.48625 -82.87503418 62.785 -82.4375 62.0625 C-81.99929932 61.32902344 -81.56109863 60.59554687 -81.10961914 59.83984375 C-80.19928893 58.31766832 -79.28642314 56.79700656 -78.37109375 55.27783203 C-77.03176421 53.05277066 -75.70194941 50.82230584 -74.375 48.58984375 C-73.56279291 47.22638797 -72.75030544 45.86309916 -71.9375 44.5 C-71.55585693 43.8594165 -71.17421387 43.21883301 -70.78100586 42.55883789 C-68.11669821 38.11669821 -68.11669821 38.11669821 -67 37 C-65.58774954 36.9071274 -64.17091066 36.88253228 -62.75561523 36.88647461 C-61.85475693 36.88655014 -60.95389862 36.88662567 -60.02574158 36.88670349 C-59.04658279 36.89186478 -58.06742401 36.89702606 -57.05859375 36.90234375 C-56.06118668 36.9037587 -55.0637796 36.90517365 -54.03614807 36.90663147 C-50.83656876 36.91224886 -47.63705831 36.92480429 -44.4375 36.9375 C-42.27408955 36.94251276 -40.11067801 36.94707605 -37.94726562 36.95117188 C-32.63148675 36.96222393 -27.31574829 36.97897896 -22 37 C-21.69731201 36.21753906 -21.39462402 35.43507812 -21.08276367 34.62890625 C-20.05208741 32.12646611 -18.86300532 30.20358349 -17.3125 28 C-15.27081514 24.85641461 -15.27081514 24.85641461 -15.125 21.125 C-15.97060703 18.9979729 -15.97060703 18.9979729 -17 17 C-17.39567146 12.88501683 -17.26788111 10.52545911 -15.375 6.8125 C-10.88210183 1.49196269 -7.082843 -1.01183471 0 0 Z " fill="#FF0707" transform="translate(351,87)"/>
<path d="M0 0 C1.16421177 -0.00322445 2.32842355 -0.00644889 3.52791446 -0.00977105 C5.47086394 -0.00744815 5.47086394 -0.00744815 7.45306492 -0.00507832 C8.83018655 -0.00694447 10.20730765 -0.00924438 11.58442789 -0.01194364 C15.38643898 -0.01809231 19.18842818 -0.01792446 22.99044311 -0.01674926 C27.08389338 -0.01654603 31.17733646 -0.0220566 35.27078342 -0.02680683 C43.29715363 -0.03513067 51.32351649 -0.03786245 59.34989064 -0.03841921 C65.87063733 -0.03889354 72.39138158 -0.04094413 78.91212749 -0.04411983 C97.37882374 -0.05293106 115.84551416 -0.05753847 134.31221252 -0.05678936 C135.30877819 -0.0567494 136.30534387 -0.05670945 137.3321085 -0.05666828 C138.82877131 -0.05660696 138.82877131 -0.05660696 140.35566974 -0.0565444 C156.53351423 -0.05613777 172.71133545 -0.06571027 188.8891732 -0.07980665 C205.48005824 -0.09414946 222.07093193 -0.10107799 238.66182333 -0.10021287 C247.98456018 -0.09988018 257.30727265 -0.10265872 266.63000393 -0.11339092 C274.5665327 -0.12246842 282.50302603 -0.12469394 290.43955772 -0.1178815 C294.49239553 -0.11460233 298.54516526 -0.11460954 302.59799671 -0.12323475 C306.30326689 -0.1310395 310.00841432 -0.1297308 313.71368129 -0.12095062 C315.69946317 -0.1186649 317.68524867 -0.12629129 319.67101616 -0.13419026 C321.42124544 -0.12729207 321.42124544 -0.12729207 323.20683289 -0.12025452 C324.22014409 -0.12047188 325.2334553 -0.12068925 326.27747291 -0.12091321 C328.66633701 0.12863445 328.66633701 0.12863445 330.66633701 2.12863445 C330.11078146 6.68419001 330.11078146 6.68419001 328.66633701 8.12863445 C326.61605963 8.22543487 324.56238823 8.25050389 322.50982761 8.24888897 C321.53461874 8.25017061 321.53461874 8.25017061 320.53970867 8.25147814 C318.34548122 8.25313471 316.151329 8.2476087 313.9571085 8.24215984 C312.39047847 8.24187798 310.82384831 8.24203568 309.25721836 8.24260235 C304.99087325 8.24289037 300.724556 8.23699288 296.45821738 8.23002839 C292.0045665 8.22379564 287.55091505 8.22319112 283.09726048 8.22200298 C274.65766258 8.21888943 266.21807757 8.21067573 257.77848536 8.20065349 C248.17284258 8.18949308 238.56719919 8.18398209 228.96155155 8.17895806 C209.19647283 8.16849314 189.43140573 8.15089324 169.66633701 8.12863445 C171.42350012 11.33148151 173.18200927 14.53358764 174.94075108 17.73556805 C175.4351569 18.63677883 175.92956272 19.53798962 176.43895054 20.46650982 C180.00364351 26.95425102 183.65261978 33.37903975 187.41633701 39.75363445 C188.61090828 41.78976385 189.80489802 43.8262345 190.99836826 45.86300945 C191.60116611 46.8910368 192.20396397 47.91906414 192.82502842 48.97824383 C195.93978808 54.3074481 199.02208936 59.65529295 202.10383701 65.00363445 C202.71960606 66.07178387 203.3353751 67.13993328 203.96980381 68.24045086 C206.5446667 72.70801388 209.11821346 77.1763337 211.69075108 81.64523602 C213.04748959 84.00209736 214.40466922 86.3587037 215.76228428 88.71506023 C217.0317982 90.91870314 218.30056969 93.12277401 219.56843662 95.32736492 C220.14859531 96.33428387 220.72875401 97.34120281 221.32649326 98.37863445 C221.88095127 99.34414227 222.43540928 100.30965008 223.00666904 101.3044157 C224.11773494 103.19509094 225.25989412 105.06781748 226.43147373 106.9216032 C227.25735996 108.23064617 227.25735996 108.23064617 228.09993076 109.56613445 C228.59420567 110.32797039 229.08848057 111.08980633 229.5977335 111.8747282 C230.85260519 114.52151263 231.01958857 116.23251563 230.66633701 119.12863445 C228.05941487 121.73555659 226.98359036 121.37981811 223.35212803 121.38260174 C222.22477238 121.38824139 221.09741673 121.39388103 219.93589878 121.39969158 C218.0718993 121.39361889 218.0718993 121.39361889 216.17024326 121.38742352 C214.86618534 121.39092815 213.56212742 121.39443279 212.21855259 121.39804363 C208.63596876 121.40718089 205.05349979 121.40361793 201.47091389 121.39728546 C197.7268883 121.39223235 193.98287274 121.39691499 190.23884678 121.40005779 C183.95066144 121.40369946 177.66252304 121.39889311 171.37434483 121.38937664 C164.09774769 121.37849169 156.82126262 121.38201712 149.5446682 121.39302945 C143.30429879 121.40209664 137.06396319 121.4033904 130.82358932 121.39815211 C127.09334761 121.39502927 123.36315862 121.39463164 119.63292027 121.40122509 C115.47602258 121.40805906 111.31931901 121.3985951 107.16243076 121.38742352 C105.91976444 121.39147198 104.67709812 121.39552044 103.39677525 121.39969158 C102.26941959 121.39405193 101.14206394 121.38841228 99.980546 121.38260174 C98.99682514 121.38184769 98.01310429 121.38109364 96.99957371 121.38031673 C94.66633701 121.12863445 94.66633701 121.12863445 92.66633701 119.12863445 C92.17034566 115.06287244 93.11683489 112.75923674 95.20149326 109.3044157 C95.75570957 108.37194012 96.30992588 107.43946453 96.88093662 106.47873211 C97.49074375 105.47632488 98.10055088 104.47391766 98.72883701 103.44113445 C100.02393262 101.26844879 101.3181751 99.09525441 102.61164951 96.9216032 C103.28357334 95.79931316 103.95549717 94.67702312 104.64778233 93.5207243 C107.85546381 88.13036066 110.97891058 82.69225197 114.10383701 77.25363445 C115.36274604 75.06862017 116.62186179 72.88372499 117.88118076 70.69894695 C118.81873203 69.07134441 118.81873203 69.07134441 119.77522373 67.41086102 C122.28060714 63.06250385 124.78852131 58.71560941 127.29670811 54.36886883 C128.53553952 52.22186302 129.77414907 50.07472917 131.01252842 47.92746258 C133.94295695 42.84650877 136.87496667 37.7664852 139.81224155 32.6894865 C141.20071728 30.28933345 142.58834535 27.88869085 143.97590733 25.48800945 C144.95652531 23.79221827 145.9383701 22.09713669 146.92024326 20.40207195 C147.51321201 19.3759782 148.10618076 18.34988445 148.71711826 17.29269695 C149.23959141 16.3898698 149.76206455 15.48704266 150.30037022 14.55685711 C151.49102715 12.44027555 152.58965645 10.30434073 153.66633701 8.12863445 C152.84873716 8.13047804 152.03113731 8.13232162 151.18876171 8.13422108 C131.31814597 8.17834077 111.44753864 8.21146207 91.57688427 8.2322588 C81.96768659 8.24258259 72.35852156 8.25666392 62.74934483 8.27951336 C54.37648096 8.29941355 46.00364073 8.31234286 37.63075387 8.31681144 C33.19512245 8.31942456 28.75955866 8.32558925 24.32394886 8.34009457 C20.15273457 8.3536253 15.98161604 8.35786629 11.81038189 8.35484982 C10.27606213 8.35540201 8.74173931 8.35940624 7.20743847 8.3670454 C5.11920661 8.37693633 3.03134053 8.37462509 0.94310093 8.36914349 C-0.22757616 8.37098707 -1.39825325 8.37283066 -2.6044054 8.37473011 C-5.33366299 8.12863445 -5.33366299 8.12863445 -7.33366299 6.12863445 C-6.61738688 0.25517038 -5.70942356 0.00396966 0 0 Z " fill="#FF0606" transform="translate(94.33366298675537,303.8713655471802)"/>
<path d="M0 0 C0.66 0 1.32 0 2 0 C2.35078613 0.63164062 2.70157227 1.26328125 3.06298828 1.9140625 C10.70702636 15.66194051 18.47403485 29.32423012 26.4296875 42.89453125 C30.80662917 50.36385109 35.11729427 57.87112132 39.43164062 65.37670898 C42.53182347 70.75924253 45.65685595 76.12456402 48.8359375 81.4609375 C49.44236084 82.47913574 50.04878418 83.49733398 50.67358398 84.54638672 C51.82530969 86.47490956 52.98090344 88.40112911 54.14086914 90.32470703 C54.64996826 91.17661621 55.15906738 92.02852539 55.68359375 92.90625 C56.13275146 93.65197266 56.58190918 94.39769531 57.04467773 95.16601562 C58 97 58 97 58 99 C20.38 99 -17.24 99 -56 99 C-54.45460244 95.13650609 -52.88793449 91.87579302 -50.83203125 88.30078125 C-50.19386475 87.18751465 -49.55569824 86.07424805 -48.89819336 84.92724609 C-48.20304466 83.72228318 -47.5078113 82.5173691 -46.8125 81.3125 C-46.09031382 80.05565201 -45.3683941 78.79865088 -44.64672852 77.54150391 C-42.79256933 74.31362852 -40.93436047 71.08810651 -39.07458496 67.86346436 C-37.42607817 65.00474796 -35.77968312 62.14481546 -34.1328125 59.28515625 C-31.05534334 53.94486589 -27.97333066 48.60721246 -24.88964844 43.27050781 C-21.61217347 37.59802013 -18.33701759 31.92419528 -15.0625 26.25 C-14.43649902 25.16525391 -13.81049805 24.08050781 -13.16552734 22.96289062 C-8.7568316 15.32004847 -4.36403747 7.66843646 0 0 Z " fill="#FFFDFD" transform="translate(255,317)"/>
<path d="M0 0 C1.6874269 0.00015917 3.37485866 0.00585622 5.06225586 0.01586914 C6.39189613 0.01799156 6.39189613 0.01799156 7.74839783 0.02015686 C10.59133215 0.02577324 13.43418892 0.03832848 16.27709961 0.05102539 C18.19962452 0.05603828 20.12215065 0.06060155 22.04467773 0.06469727 C26.7680151 0.07574798 31.49129419 0.09302356 36.21459961 0.11352539 C36.50320862 0.63807312 36.79181763 1.16262085 37.08917236 1.70306396 C37.89048806 3.15925505 38.69194709 4.61536727 39.49353027 6.07141113 C40.36934998 7.66239287 41.24471899 9.25362271 42.11987305 10.8449707 C44.30107339 14.77853092 46.52316538 18.66481281 48.91772461 22.47290039 C49.33610596 23.14184326 49.7544873 23.81078613 50.18554688 24.5 C50.9807026 25.75887688 51.78805627 27.0101528 52.60888672 28.25244141 C54.17106241 30.73246994 55.20932787 32.56877884 55.23803711 35.53540039 C53.75112222 39.28106386 51.75440763 42.62028428 49.65209961 46.05102539 C48.81623055 47.43439533 47.98164329 48.81854039 47.14819336 50.20336914 C46.7020166 50.94312988 46.25583984 51.68289062 45.79614258 52.44506836 C42.52853951 57.95832886 39.38024448 63.5412963 36.21459961 69.11352539 C30.62811414 69.33660348 25.0442361 69.49957895 19.4543457 69.60791016 C17.55479773 69.65307582 15.65556107 69.71442708 13.75708008 69.79248047 C-1.88819348 70.41943879 -1.88819348 70.41943879 -6.12524414 67.50292969 C-7.72718384 65.12080002 -8.71238289 62.77435388 -9.78540039 60.11352539 C-11.04361075 58.12015251 -12.33212397 56.14569588 -13.64477539 54.18774414 C-14.94597998 52.06148141 -16.2427972 49.93252805 -17.53540039 47.80102539 C-18.22633789 46.74979492 -18.91727539 45.69856445 -19.62915039 44.61547852 C-24.2065838 36.92179653 -24.2065838 36.92179653 -23.07373047 32.05810547 C-21.52264378 28.8892989 -19.74825867 26.04380274 -17.78540039 23.11352539 C-16.64501046 21.13554541 -15.51335594 19.15250115 -14.39086914 17.16430664 C-13.2557551 15.2490455 -12.11643855 13.33626873 -10.97290039 11.42602539 C-10.38831055 10.43924805 -9.8037207 9.4524707 -9.20141602 8.43579102 C-4.26011425 0.12776221 -4.26011425 0.12776221 0 0 Z " fill="#FFFCFC" transform="translate(225.785400390625,170.886474609375)"/>
<path d="M0 0 C1.08587906 0.00999275 1.08587906 0.00999275 2.19369507 0.02018738 C3.01439484 0.02041397 3.8350946 0.02064056 4.68066406 0.02087402 C5.56716644 0.03635788 6.45366882 0.05184174 7.36703491 0.0677948 C8.27424286 0.07203964 9.18145081 0.07628448 10.1161499 0.08065796 C13.02038973 0.09748222 15.92394151 0.13514095 18.82797241 0.17326355 C20.79410824 0.18830556 22.76025492 0.2019948 24.72640991 0.21427917 C29.5521968 0.24739798 34.37746786 0.29920569 39.20297241 0.36076355 C39.79984863 1.43390808 39.79984863 1.43390808 40.40878296 2.5287323 C41.90745539 5.22090088 43.40800046 7.91201494 44.90975952 10.60246277 C45.87024179 12.32449247 46.82862216 14.04769399 47.78695679 15.7709198 C48.40248413 16.87306824 49.01801147 17.97521667 49.65219116 19.11076355 C50.55203735 20.72724792 50.55203735 20.72724792 51.47006226 22.37638855 C52.97394728 24.96634214 54.58175306 27.4009622 56.28500366 29.86076355 C56.91793335 31.01576355 57.55086304 32.17076355 58.20297241 33.36076355 C57.12096396 37.05916898 55.20619145 40.29651373 53.30453491 43.63420105 C52.74250366 44.62420105 52.18047241 45.61420105 51.60140991 46.63420105 C51.01617554 47.65771667 50.43094116 48.6812323 49.82797241 49.73576355 C49.25047241 50.7515448 48.67297241 51.76732605 48.07797241 52.81388855 C46.45630427 55.66476634 44.83059628 58.51328257 43.20297241 61.36076355 C42.47037468 62.64281987 41.73779032 63.92488383 41.00521851 65.20695496 C40.41047729 66.24771179 39.81573608 67.28846863 39.20297241 68.36076355 C3.7439928 72.17408274 3.7439928 72.17408274 -5.03237915 66.13420105 C-9.81054015 60.55487674 -12.43543225 54.169819 -14.72866821 47.25138855 C-16.00333785 43.80255662 -17.75868842 41.07782512 -19.96792603 38.15959167 C-21.19049838 35.50708488 -20.67616276 34.12505198 -19.79702759 31.36076355 C-18.69049518 29.15536483 -17.50514234 26.98879743 -16.26968384 24.85295105 C-15.92070541 24.24565155 -15.57172699 23.63835205 -15.21217346 23.01264954 C-14.10115276 21.0831657 -12.98040307 19.15953566 -11.85952759 17.23576355 C-11.10955748 15.93534033 -10.36020207 14.6345624 -9.61148071 13.3334198 C-2.1700437 0.43564866 -2.1700437 0.43564866 0 0 Z " fill="#FFFDFD" transform="translate(289.7970275878906,132.6392364501953)"/>
<path d="M0 0 C3.125 0.375 3.125 0.375 6 1 C6.625 4.375 6.625 4.375 7 8 C5 10 5 10 2.5625 10.3125 C0 10 0 10 -1.875 8.8125 C-3 7 -3 7 -2.8125 4.4375 C-2 2 -2 2 0 0 Z " fill="#FFEEEE" transform="translate(344,228)"/>
<path d="M0 0 C3.0625 0.1875 3.0625 0.1875 5.0625 2.1875 C4.49431818 7.75568182 4.49431818 7.75568182 3.0625 9.1875 C0.125 9.4375 0.125 9.4375 -2.9375 9.1875 C-4.9375 6.1875 -4.9375 6.1875 -4.625 3.5625 C-3.63731654 0.1505026 -3.65603948 0.23336422 0 0 Z " fill="#FFF5F5" transform="translate(202.9375,267.8125)"/>
<path d="M0 0 C2.5 0.25 2.5 0.25 4.5 2.25 C4.8125 5.25 4.8125 5.25 4.5 8.25 C1.5 10.25 1.5 10.25 -1.125 9.9375 C-3.5 9.25 -3.5 9.25 -4.5 8.25 C-4.6875 5.3125 -4.6875 5.3125 -4.5 2.25 C-2.5 0.25 -2.5 0.25 0 0 Z " fill="#FFF3F3" transform="translate(347.5,95.75)"/>
<path d="M0 0 C2.5 0.25 2.5 0.25 4.5 2.25 C4.75 4.75 4.75 4.75 4.5 7.25 C2.5 9.25 2.5 9.25 -0.5625 9.4375 C-3.5 9.25 -3.5 9.25 -4.5 8.25 C-4.6875 5.3125 -4.6875 5.3125 -4.5 2.25 C-2.5 0.25 -2.5 0.25 0 0 Z " fill="#FFFAFA" transform="translate(164.5,200.75)"/>
</svg>
