<?xml version="1.0" standalone="no"?>
<!DOCTYPE svg PUBLIC "-//W3C//DTD SVG 20010904//EN"
 "http://www.w3.org/TR/2001/REC-SVG-20010904/DTD/svg10.dtd">
<svg version="1.0" xmlns="http://www.w3.org/2000/svg"
 width="512.000000pt" height="512.000000pt" viewBox="0 0 512.000000 512.000000"
 preserveAspectRatio="xMidYMid meet">

<g transform="translate(0.000000,512.000000) scale(0.100000,-0.100000)"
fill="#000000" stroke="none">
<path d="M1 3918 c1 -745 5 -1169 10 -1113 98 1021 806 1891 1789 2200 164 51
379 92 565 108 22 2 -501 4 -1162 5 l-1203 2 1 -1202z"/>
<path d="M2750 5113 c321 -30 602 -101 855 -216 857 -387 1428 -1198 1508
-2142 2 -22 4 501 5 1163 l2 1202 -1202 -2 c-662 0 -1187 -3 -1168 -5z"/>
<path d="M2058 4317 c-166 -57 -273 -182 -314 -364 l-16 -72 -39 -6 c-65 -11
-155 -62 -203 -116 -93 -103 -116 -258 -58 -383 71 -151 231 -236 386 -206 34
7 73 18 88 26 27 14 28 14 28 -14 0 -15 -5 -64 -10 -107 -6 -44 -14 -152 -19
-240 -6 -104 -15 -173 -25 -197 -14 -32 -16 -92 -16 -405 1 -263 5 -389 14
-443 19 -107 70 -252 122 -347 49 -93 52 -116 28 -226 -21 -96 -79 -217 -142
-299 -68 -88 -68 -138 -1 -138 56 0 175 174 224 327 15 48 31 95 34 104 4 12
61 -42 219 -207 176 -185 218 -224 241 -224 64 0 68 54 9 119 -23 25 -119 126
-212 224 -205 215 -264 291 -327 422 -91 190 -94 211 -94 665 l0 395 24 34
c64 90 208 89 273 -1 l23 -33 6 -445 c5 -380 9 -454 24 -505 20 -70 62 -157
104 -217 51 -73 515 -641 532 -651 26 -16 68 0 75 29 8 32 21 13 -280 387
-259 320 -285 357 -318 457 -21 62 -22 85 -26 494 -3 353 -1 428 10 424 81
-31 238 -58 334 -58 52 0 55 -2 121 -64 77 -73 128 -150 160 -245 33 -96 30
-112 -20 -137 -90 -44 -170 -183 -152 -266 25 -112 108 -179 222 -179 67 0
115 23 160 77 l36 42 50 -31 c186 -114 283 -347 236 -569 -16 -74 -70 -187
-111 -234 -55 -61 -62 -81 -43 -110 10 -16 25 -24 44 -24 65 0 185 191 215
342 46 228 -16 441 -173 598 -42 41 -97 86 -123 100 -40 21 -48 30 -48 53 0
86 -49 171 -120 207 -32 17 -38 25 -43 64 -17 124 -93 272 -190 370 -34 34
-104 91 -155 126 -97 66 -223 184 -256 241 -17 30 -18 32 -2 26 38 -15 123
-19 165 -7 99 26 213 184 241 334 11 61 15 68 45 80 75 32 84 96 26 186 -54
84 -61 122 -44 265 17 144 7 219 -38 312 -47 97 -116 166 -217 216 l-85 42
-266 3 c-256 2 -268 1 -333 -21z m614 -111 c63 -26 117 -64 117 -84 1 -7 -20
-34 -46 -60 -52 -51 -102 -72 -174 -72 -76 0 -110 -26 -142 -111 -16 -41 -49
-102 -73 -136 l-45 -63 -29 15 c-40 20 -108 19 -150 -4 -79 -41 -118 -150 -87
-238 13 -38 13 -44 -3 -58 -9 -8 -21 -15 -26 -15 -10 0 -99 142 -128 204 -32
71 -46 138 -46 227 0 152 54 275 154 350 83 63 111 68 381 68 229 1 243 -1
297 -23z m209 -223 c15 -44 16 -122 4 -280 -9 -123 0 -165 54 -247 25 -37 25
-39 7 -50 -54 -32 -66 -51 -81 -131 -8 -44 -26 -103 -40 -130 -32 -66 -92
-131 -129 -141 -19 -4 -79 4 -175 25 -176 38 -186 38 -207 6 -15 -23 -15 -27
0 -50 9 -14 33 -29 55 -35 24 -6 42 -18 46 -29 12 -40 90 -148 153 -213 36
-38 59 -68 51 -68 -59 0 -230 67 -354 140 -75 43 -157 48 -239 14 -18 -7 -19
-3 -13 92 4 54 14 163 23 241 l17 141 41 29 41 29 50 -23 c54 -25 124 -30 143
-11 16 16 15 63 -1 77 -8 6 -29 14 -48 17 -110 21 -172 119 -119 187 24 30 52
34 90 12 50 -29 106 -14 153 40 43 50 98 141 118 194 l21 58 63 5 c80 7 161
44 211 96 22 22 42 41 46 41 3 1 12 -16 19 -36z m-1143 -285 c16 -92 47 -168
111 -273 28 -45 51 -87 51 -94 0 -18 -43 -40 -102 -52 -194 -39 -358 171 -271
346 30 58 63 93 115 119 78 39 82 37 96 -46z m1433 -1718 c29 -16 52 -68 45
-104 -11 -55 -62 -124 -98 -134 -65 -17 -132 23 -144 84 -7 39 18 86 72 133
37 33 87 41 125 21z"/>
<path d="M1 1203 l-1 -1203 1203 1 c735 1 1167 5 1112 10 -462 44 -915 222
-1302 510 -110 82 -371 337 -455 444 -129 166 -198 275 -293 465 -136 272
-224 581 -254 885 -5 56 -9 -366 -10 -1112z"/>
<path d="M5110 2354 c0 -129 -54 -393 -122 -601 -193 -591 -616 -1104 -1168
-1421 -318 -182 -660 -286 -1070 -325 -19 -2 506 -5 1168 -5 l1202 -2 0 1200
c0 660 -2 1200 -5 1200 -3 0 -5 -21 -5 -46z"/>
</g>
</svg>
